<?xml version="1.0" encoding="UTF-8"?>
<svg width="330px" height="1080px" viewBox="0 0 330 1080" version="1.1" xmlns="http://www.w3.org/2000/svg" xmlns:xlink="http://www.w3.org/1999/xlink">
    <title>Web / Menu</title>
    <g id="Web-/-Menu" stroke="none" stroke-width="1" fill="none" fill-rule="evenodd">
        <g id="BG-/-Shapes-Pattern" transform="translate(-87.000000, -74.000000)">
            <circle id="Oval" stroke="#9CEAD6" stroke-width="18" cx="208.404253" cy="1151.5" r="15.5"></circle>
            <path d="M107.802437,964.205009 L125.300036,981.901453 C115.033772,992.57259 115.064866,1009.45055 125.464756,1019.85044 C135.793387,1030.17907 152.511619,1030.28051 163.193521,1020.22474 L180.691622,1037.9207 C160.172497,1057.70376 127.684436,1057.65745 107.671093,1037.6441 C87.5211212,1017.49413 87.6117347,984.698531 107.802437,964.205009 Z" id="Combined-Shape" fill="#36AAD3" fill-rule="nonzero"></path>
            <path d="M385.670486,1020.00037 L405.903887,1040.23377 L426.138019,1019.99963 L405.904618,999.766234 L385.670486,1020.00037 Z M367.904253,1020.00069 L405.904939,982 L443.904253,1019.99931 L405.903566,1058 L367.904253,1020.00069 Z" id="Rectangle" fill="#E3A8EA" fill-rule="nonzero"></path>
            <circle id="Oval" fill="#99719E" cx="81" cy="81" r="81"></circle>
            <path d="M483,133.488231 C483,170.773951 452.777905,201 415.497061,201 C378.51687,201 348.482035,171.259502 348.000007,134.388915 L380.406854,134.388656 C380.88444,153.361102 396.412025,168.594351 415.497061,168.594351 C434.8831,168.594351 450.598589,152.876805 450.598589,133.488231 C450.598589,114.703646 435.846982,99.3649338 417.297743,98.427505 L417.297817,66.0000177 C453.74626,66.9546695 483,96.8047146 483,133.488231 Z" id="Combined-Shape" fill="#F7E79A" fill-rule="nonzero"></path>
        </g>
    </g>
</svg>