<?xml version="1.0" encoding="UTF-8"?>
<svg width="1920px" height="1080px" viewBox="0 0 1920 1080" version="1.1" xmlns="http://www.w3.org/2000/svg" xmlns:xlink="http://www.w3.org/1999/xlink">
    <title>BG / Shapes Pattern</title>
    <g id="Web-App" stroke="none" stroke-width="1" fill="none" fill-rule="evenodd">
        <g id="BG-/-Shapes-Pattern" transform="translate(-65.000000, -59.000000)">
            <circle id="Oval" fill="#99719E" cx="111" cy="111" r="111"></circle>
            <circle id="Oval" stroke="#9CEAD6" stroke-width="18" cx="949" cy="1129" r="27"></circle>
            <path d="M537.233082,639.063694 L537.243897,637.830214 C537.243897,688.922636 495.811685,730.341227 444.702461,730.341227 C394.005386,730.341227 352.82988,689.587949 352.169091,639.064353 L396.59643,639.063895 C397.251076,665.061812 418.53826,685.935941 444.702461,685.935941 C470.866662,685.935941 492.153846,665.061812 492.808492,639.063895 L537.233082,639.063694 Z" id="Combined-Shape" fill="#36AAD3" fill-rule="nonzero" transform="translate(444.702461, 684.702461) rotate(-315.000000) translate(-444.702461, -684.702461) "></path>
            <path d="M2051,111.483872 C2051,162.579118 2009.58454,204 1958.49597,204 C1907.81946,204 1866.66064,163.244573 1866.00001,112.718272 L1910.4094,112.718068 C1911.06401,138.717215 1932.3425,159.592258 1958.49597,159.592258 C1985.06203,159.592258 2006.59807,138.0534 2006.59807,111.483872 C2006.59807,85.7418523 1986.38262,64.7220218 1960.96304,63.4376651 L1960.96325,19.0000132 C2010.91131,20.3080191 2051,61.2137259 2051,111.483872 Z" id="Combined-Shape" fill="#F7E79A" fill-rule="nonzero"></path>
            <path d="M1641.87595,909.884269 L1641.87595,960.456956 L1692.46527,960.456956 L1692.46527,909.884269 L1641.87595,909.884269 Z M1619.66601,887.681625 L1714.67522,887.681625 L1714.67522,982.659599 L1619.66601,982.659599 L1619.66601,887.681625 Z" id="Rectangle" fill="#E3A8EA" fill-rule="nonzero" transform="translate(1667.170612, 935.170612) rotate(-45.000000) translate(-1667.170612, -935.170612) "></path>
        </g>
    </g>
</svg>