<?xml version="1.0" encoding="UTF-8"?>
<svg width="160px" height="91px" viewBox="0 0 160 91" version="1.1" xmlns="http://www.w3.org/2000/svg" xmlns:xlink="http://www.w3.org/1999/xlink">
    <title>Brand / Logo</title>
    <defs>
        <polygon id="path-1" points="0.30645 0.24155 42.51345 0.24155 42.51345 91 0.30645 91"></polygon>
        <polygon id="path-3" points="0.161696629 0.173232967 44.813427 0.173232967 44.813427 45.806244 0.161696629 45.806244"></polygon>
    </defs>
    <g id="Web-App" stroke="none" stroke-width="1" fill="none" fill-rule="evenodd">
        <g id="Login" transform="translate(-880.000000, -318.000000)">
            <g id="Group" transform="translate(789.000000, 318.000000)">
                <g transform="translate(91.000000, 0.000000)" id="Group-11">
                    <g id="Group-3" transform="translate(68.000000, 0.000000)">
                        <mask id="mask-2" fill="white">
                            <use xlink:href="#path-1"></use>
                        </mask>
                        <g id="Clip-2"></g>
                        <path d="M33.51595,57.43505 C30.92695,59.44755 28.48695,60.39405 25.38595,60.56455 L25.38595,50.65655 L33.51595,50.65655 L33.51595,57.43505 Z M9.79495,46.57355 C9.79495,40.94055 12.04995,36.35255 15.76995,33.66405 L15.76995,58.45955 C11.48795,55.82055 9.79495,51.09055 9.79495,46.57355 L9.79495,46.57355 Z M25.38595,41.85105 L25.38595,31.08205 C28.90645,31.35955 32.56945,32.93155 34.98795,35.24305 L35.48595,35.71255 L41.59595,29.45355 L41.11195,28.97005 C36.84445,24.75905 31.30345,22.34105 25.38595,22.07055 L25.38595,7.21905 C25.38595,3.36405 22.26345,0.24155 18.40145,0.24155 L15.76995,0.24155 L15.76995,23.33655 C12.04245,24.56005 8.83445,26.65105 6.28795,29.54605 C2.42595,33.93455 0.30645,39.98005 0.30645,46.57355 C0.30645,55.73505 4.53145,65.41505 15.76995,68.62305 L15.76995,84.37805 C15.96195,88.06955 19.01295,91.00005 22.74745,91.00005 L25.38595,91.00005 L25.38595,69.69705 C32.23545,69.44155 37.78345,66.76705 42.34245,61.55305 L42.51345,61.36105 L42.51345,41.85105 L25.38595,41.85105 Z" id="Fill-1" fill="#99719E" mask="url(#mask-2)"></path>
                    </g>
                    <path d="M0,22 L0,31.0401902 L14.1104761,31.0401902 L14.1104761,60.92705 C14.1104761,64.7081008 17.0782317,67.7984655 20.8000478,67.9934172 C20.9217683,68 21.0444988,68 21.1662192,68 C21.2884447,68 21.4106701,68 21.5323905,67.9934172 L23.8890188,67.9934172 L23.8890188,67.4526161 L23.8890188,54.4004711 L23.8890188,53.845998 L23.8890188,31.0401902 L38,31.0401902 L38,22 L0,22 Z" id="Fill-4" fill="#36A9D2"></path>
                    <path d="M49,22 L49,60.9232718 C49,64.7065781 52.0546457,67.7978657 55.8933604,67.9929076 C56.0119066,68 56.137732,68 56.2635574,68 C56.3888629,68 56.5146883,68 56.6332345,67.9929076 L59,67.9929076 L59,67.4812392 L59,54.3718902 L59,22 L49,22 Z" id="Fill-6" fill="#36A9D2"></path>
                    <g id="Group-10" transform="translate(115.000000, 22.000000)">
                        <mask id="mask-4" fill="white">
                            <use xlink:href="#path-3"></use>
                        </mask>
                        <g id="Clip-9"></g>
                        <path d="M33.6219775,0.173232967 L22.1859101,17.8342 L11.2382697,0.173232967 L0.161696629,0.173232967 L0.161696629,1.45314505 L17.2728202,27.0529033 L17.2728202,31.6837385 L17.2728202,38.7454967 C17.2728202,42.6499363 20.4304045,45.806244 24.3363034,45.806244 L27.0691685,45.806244 L27.0691685,27.0594747 L44.6914719,1.64017802 L44.8138315,1.46022198 L44.8138315,0.173232967 L33.6219775,0.173232967 Z" id="Fill-8" fill="#36A9D2" mask="url(#mask-4)"></path>
                    </g>
                </g>
            </g>
        </g>
    </g>
</svg>